# xmcd CD database file
#
# Track frame offsets:
#	150
#	13391
#	27408
#	38906
#	49859
#	63759
#	78600
#	99789
#	114228
#	126921
#	149202
#	164287
#	176754
#	188978
#	205357
#	218949
#	233068
#	249314
#	261819
#	274470
#	290337
#	308866
#	323902
#	336804
#
# Disc length: 4648 seconds
#
# Revision: 1
# Processed by: cddbd v1.5.2PL0 Copyright (c) Steve Scherf et al.
# Submitted via: CDex 1.97
#
DISCID=6e122618
DTITLE=Various Artist - Now Jazz - Disc 2
DYEAR=2018
DGENRE=Jazz
TTITLE0=Nina Simone - Feeling Good 
TTITLE1=Etta James - I Just Want To Make Love To You
TTITLE2=Andy Williams - Music To Watch Girls By
TTITLE3=Dean Martin - Ain't That A Kick In The Head
TTITLE4=Bobby Darin - Mack The Knife
TTITLE5=Peggy Lee - Fever
TTITLE6=Diana Krall - The Look Of Love
TTITLE7=Nat King Cole - Unforgettable
TTITLE8=Julie London - Cry Me A River
TTITLE9=Louis Armstrong  and Ella Fitzgerald - Summertime
TTITLE10=Gregory Porter - Hey Laura
TTITLE11=Bobby Hebb - Sunny
TTITLE12=Perry Como - Papa Loves Mambo
TTITLE13=Glenn Miller and His Orchestra - In The Mood
TTITLE14=Dinah Washingtion - Mad About The Boy
TTITLE15=Alison Moyet - That Ole Devil Called Love
TTITLE16=Jose Feliciano - Light My Fire
TTITLE17=Quincy Jones - Soul Bossa Nova
TTITLE18=Stan Getz and Astrud Gilberto - The Girl From Ipanema
TTITLE19=Melody Gardot - Baby I'm A Fool
TTITLE20=Katie Melua - Wonderful Life
TTITLE21=Robbie Williams - Mr Bojangles
TTITLE22=Tony Bennett - I Left My Heart In San Francisco
TTITLE23=Bryan Ferry - As Time Goes By
EXTD=YEAR: 2018
EXTT0=
EXTT1=
EXTT2=
EXTT3=
EXTT4=
EXTT5=
EXTT6=
EXTT7=
EXTT8=
EXTT9=
EXTT10=
EXTT11=
EXTT12=
EXTT13=
EXTT14=
EXTT15=
EXTT16=
EXTT17=
EXTT18=
EXTT19=
EXTT20=
EXTT21=
EXTT22=
EXTT23=
PLAYORDER=
